<?xml version="1.0" encoding="UTF-8" standalone="no"?><!-- Generator: Gravit.io --><svg xmlns="http://www.w3.org/2000/svg" xmlns:xlink="http://www.w3.org/1999/xlink" style="isolation:isolate" viewBox="-30 0 620 540" width="620pt" height="540pt"><g><path d=" M 152.265 616.445 C 141.157 560.352 128.67 500.595 123.717 488.963 C 121.94 484.795 114.854 478.309 91.368 472.539 C 74.981 468.513 58.037 464.349 53.752 460.714 C 46.235 454.335 31.707 449.002 17.657 443.84 C 14.003 442.498 10.385 441.17 6.94 439.842 C 2.505 438.13 -1.364 436.753 -4.778 435.539 C -14.182 432.19 -19.859 430.17 -24.007 426.008 C -25.858 424.15 -26.489 421.32 -25.694 418.433 L -25.694 418.433 C -24.433 413.846 -20.08 410.29 -13.751 408.674 C -10.503 407.844 -6.759 407.527 -2.624 407.732 C 8.29 408.631 52.108 422.366 54.08 422.791 C 56.016 423.026 58.255 422.642 60.007 422.194 C 65.623 420.759 72.228 417.225 74.141 414.629 C 76.936 410.836 79.919 399.662 78.315 391.999 C 77.039 385.917 70.74 365.571 64.792 352.923 Q 64.428 352.198 64.115 351.514 C 63.159 349.568 62.216 347.839 61.312 346.433 C 57.311 340.218 49.34 322.472 42.748 306.684 C 42.938 306.873 42.521 305.836 42.52 306.137 C 38.772 297.14 35.492 288.832 33.685 283.735 C 32.468 280.305 31.076 276.59 29.603 272.672 Q 20.54 248.433 18.78 239.699 C 17.562 233.643 21.393 230.406 25.045 229.473 C 29.599 228.311 35.704 230.08 39.072 236.653 C 42.87 244.07 49.937 259.678 56.171 273.449 C 60.798 283.672 64.795 292.501 66.521 295.91 C 68.03 298.893 81.369 325.136 84.868 328.143 C 85.978 329.097 87.303 329.44 88.602 329.109 C 91.105 328.47 92.833 325.576 92.536 322.518 C 92.33 320.419 89.338 309.248 85.872 296.315 C 82.259 282.833 78.166 267.551 76.798 260.849 L 75.271 253.318 C 72.026 237.288 66.598 210.461 63.965 200.149 C 62.462 194.263 67.214 189.666 72.448 188.329 C 77.258 187.102 84.01 188.289 87.208 195.672 C 93.087 209.247 99.688 235.321 103.235 249.329 L 104.204 253.148 C 107.407 265.695 118.883 305.408 120.546 310.629 C 121.556 313.791 123.686 315.034 125.272 314.629 C 126.252 314.38 126.965 313.562 127.284 312.325 C 127.6 311.085 127.516 309.495 127.03 307.596 C 125.117 300.099 118.827 271.612 116.381 256.768 C 115.102 249.006 112.898 238.673 110.952 229.557 C 109.191 221.297 107.525 213.497 106.786 208.754 C 106.103 204.376 109.617 201.44 113.403 200.474 C 118.224 199.243 124.488 200.911 126.849 207.481 C 130.296 217.075 136.07 237.965 139.891 251.786 C 141.178 256.441 142.262 260.366 142.995 262.915 C 143.665 265.235 144.738 269.148 146.034 273.863 C 150.584 290.437 157.463 315.483 159.719 319.137 C 160.857 320.98 162.222 320.951 162.936 320.77 C 166.167 319.946 168.867 312.972 168.601 306.14 C 168.425 301.596 168.773 294.598 169.14 287.188 C 169.523 279.525 169.917 271.598 169.806 265.222 C 169.703 259.371 169.213 254.569 168.738 249.93 C 168.208 244.732 167.706 239.822 167.929 234.443 C 168.061 231.257 169.872 228.914 172.772 228.175 C 174.897 227.63 177.304 228.087 179.375 229.428 C 182.446 231.416 184.599 235.173 185.436 240.005 C 186.253 244.712 187.193 249.692 188.102 254.507 C 190.341 266.361 192.454 277.558 192.369 282.71 C 192.289 287.627 193.42 304.299 194.245 316.472 C 194.663 322.613 195.021 327.915 195.11 330.009 C 195.274 333.837 199.67 353.673 203.921 372.853 C 206.694 385.365 209.314 397.183 210.435 403.136 C 213.232 417.982 209.79 455.383 207.71 461.043 C 206.243 465.031 212.097 485.702 219.311 510.283 C 221.777 518.685 223.907 525.942 224.69 529.403 C 225.948 534.969 237.433 576.149 248.746 616.445 L 152.265 616.445 Z " fill="rgb(153,182,45)"/><path d=" M 321.371 616.445 C 328.397 569.098 336.204 515.942 336.834 509.361 C 337.191 505.634 338.453 497.751 339.913 488.626 C 344.189 461.931 347.559 439.51 345.492 435.53 C 342.559 429.883 333.964 391.187 334.912 375.272 C 335.293 368.891 336.459 356.169 337.693 342.702 C 339.585 322.053 341.542 300.701 341.201 296.673 C 341.016 294.469 340.684 288.869 340.3 282.387 C 339.542 269.532 338.501 251.927 337.761 246.791 C 336.987 241.409 337.705 229.405 338.467 216.696 C 338.777 211.534 339.096 206.196 339.322 201.159 C 339.555 195.988 341.309 191.769 344.257 189.276 C 346.246 187.598 348.705 186.798 351.003 187.084 C 354.138 187.471 356.345 189.683 356.909 192.999 C 357.86 198.601 357.99 203.809 358.128 209.321 C 358.25 214.242 358.377 219.334 359.05 225.472 C 359.785 232.163 361.254 240.407 362.677 248.38 C 364.051 256.087 365.348 263.368 365.77 268.148 C 366.403 275.337 370.16 282.276 373.652 282.707 C 374.422 282.804 375.857 282.651 376.803 280.569 C 378.675 276.444 382.536 249.305 385.089 231.348 C 385.816 226.238 386.42 221.999 386.81 219.48 C 387.238 216.714 387.848 212.461 388.576 207.416 C 390.731 192.437 393.989 169.798 396.317 159.294 C 397.914 152.1 404.248 149.52 409.46 150.165 C 413.552 150.672 417.623 153.275 417.492 157.95 C 417.35 163.014 416.648 171.403 415.904 180.284 C 415.085 190.086 414.155 201.198 413.851 209.495 C 413.271 225.361 410.488 256.024 409.484 264.126 C 409.23 266.18 409.352 267.857 409.848 269.111 C 410.347 270.363 411.203 271.125 412.263 271.255 C 413.977 271.468 416.042 269.882 416.676 266.437 C 417.722 260.75 424.437 217.643 426.117 204.081 L 426.622 199.955 C 428.466 184.816 431.899 156.639 436.243 141.645 C 438.606 133.487 445.516 131.343 450.715 131.987 C 456.374 132.689 461.96 136.867 461.173 143.229 C 459.792 154.376 457.688 183.185 456.428 200.4 L 455.836 208.488 C 455.298 215.686 453.051 232.229 451.068 246.826 C 449.164 260.83 447.521 272.923 447.586 275.147 C 447.683 278.388 449.878 281.186 452.584 281.522 C 453.987 281.696 455.329 281.161 456.363 280.013 C 459.624 276.398 470.089 247.145 471.271 243.822 C 472.623 240.021 475.628 230.246 479.11 218.927 C 483.798 203.679 489.115 186.396 492.103 178.123 C 494.751 170.792 500.906 168.127 505.828 168.738 C 509.777 169.226 514.219 172.105 513.752 178.607 C 513.074 187.983 510.002 201.125 507.213 212.904 Q 507.224 212.893 506.82 214.568 C 505.801 218.868 504.838 222.942 504.022 226.695 C 502.811 232.272 500.486 241.408 497.761 251.325 C 497.767 251.317 497.589 251.926 497.595 251.928 C 492.801 269.337 486.823 288.977 483.464 296.019 C 482.705 297.611 481.949 299.547 481.207 301.711 Q 481.213 301.706 480.687 303.277 C 476.147 317.311 472.266 339.45 471.742 345.988 C 471.085 354.226 475.7 365.526 479.13 369.122 C 481.479 371.585 488.866 374.404 494.936 375.157 Q 496.83 375.392 503.237 374.158 C 506.016 372.341 518.033 365.451 532.524 359.586 C 532.497 359.521 534.082 358.957 534.075 358.963 C 541.945 355.858 550.46 353.108 558.574 351.662 C 562.876 350.896 566.837 350.728 570.349 351.163 L 570.349 351.163 C 577.19 352.011 582.222 355.153 584.154 359.787 C 585.371 362.703 585.088 365.751 583.398 367.943 C 579.611 372.853 573.937 375.724 564.538 380.485 C 561.127 382.211 557.26 384.171 552.846 386.552 C 549.417 388.404 545.807 390.277 542.16 392.168 C 528.14 399.446 513.643 406.969 506.624 414.647 C 502.622 419.025 485.439 425.646 468.821 432.045 C 445.004 441.219 438.45 448.955 437.147 453.557 C 432.989 468.244 426.91 550.205 422.539 616.445 L 321.371 616.445 Z " fill="rgb(238,65,54)"/><path d=" M 224.889 616.445 C 223.749 555.696 221.967 465.231 221.301 455.888 C 220.991 451.534 220.917 442.229 220.832 431.456 C 220.583 399.937 220.122 373.511 216.976 369.334 C 212.513 363.409 195.15 320.584 193.162 302.104 C 192.365 294.693 191.245 279.842 190.058 264.121 C 188.241 240.017 186.36 215.09 185.19 210.524 C 184.55 208.027 183.087 201.655 181.392 194.274 C 178.033 179.644 173.432 159.605 171.59 153.842 C 169.656 147.805 168.162 133.867 166.581 119.108 C 165.937 113.114 165.273 106.914 164.56 101.08 C 163.826 95.09 165.025 89.9 167.934 86.465 C 169.896 84.151 172.568 82.755 175.265 82.639 C 178.944 82.479 181.911 84.595 183.199 88.299 C 185.376 94.555 186.532 100.516 187.757 106.826 C 188.848 112.461 189.979 118.289 191.941 125.216 C 194.079 132.766 197.363 141.961 200.539 150.852 C 203.61 159.446 206.511 167.566 207.918 172.98 C 210.036 181.121 215.698 188.375 219.797 188.195 C 220.701 188.156 222.321 187.704 223.005 185.126 C 224.361 180.021 223.55 148.076 223.012 126.936 C 222.861 120.922 222.734 115.93 222.695 112.96 C 222.652 109.697 222.533 104.69 222.392 98.749 C 221.975 81.11 221.343 54.454 221.989 41.927 C 222.432 33.348 229.215 29.156 235.332 28.891 C 240.133 28.682 245.317 30.888 246.072 36.287 C 246.887 42.138 247.702 51.917 248.565 62.27 C 249.519 73.7 250.598 86.654 251.854 96.251 C 254.255 114.605 256.984 150.394 257.397 159.903 C 257.501 162.313 257.968 164.216 258.782 165.563 C 259.596 166.907 260.727 167.616 261.972 167.562 C 263.984 167.474 266.05 165.252 266.112 161.168 C 266.215 154.429 265.6 103.571 264.909 87.655 L 264.691 82.813 C 263.884 65.052 262.381 31.995 264.475 13.915 C 265.613 4.081 273.144 0.28 279.245 0.016 C 285.885 -0.273 293.118 3.45 293.441 10.917 C 294.01 23.997 297.162 57.526 299.044 77.559 L 299.925 86.973 C 300.7 95.353 301.316 114.807 301.859 131.972 C 302.378 148.439 302.828 162.659 303.335 165.203 C 304.071 168.91 307.135 171.704 310.312 171.567 C 311.958 171.495 313.397 170.62 314.366 169.101 C 317.416 164.314 323.788 128.66 324.504 124.61 C 325.324 119.981 326.89 108.16 328.703 94.473 C 331.144 76.037 333.914 55.139 335.749 45.052 C 337.376 36.112 343.937 31.857 349.714 31.606 C 354.348 31.405 360.011 33.854 360.73 41.419 C 361.766 52.332 360.776 68.033 359.847 82.114 Q 359.842 82.092 359.716 84.104 C 359.376 89.244 359.058 94.114 358.845 98.587 C 358.531 105.233 357.625 116.186 356.411 128.114 C 356.408 128.111 356.337 128.837 356.337 128.84 C 354.192 149.781 351.117 173.517 348.616 182.261 C 348.052 184.239 347.558 186.611 347.124 189.241 Q 347.117 189.233 346.828 191.143 C 344.321 208.155 344.143 234.358 344.805 241.976 C 345.643 251.573 353.132 263.672 357.772 267.143 C 360.95 269.521 369.987 271.334 377.111 271.024 C 379.333 270.927 382.107 270.584 384.304 269.618 C 395.904 263.757 436.681 234.939 445.729 231.706 C 450.526 229.993 455.049 229.035 459.169 228.857 L 459.169 228.857 C 467.198 228.507 473.59 231.147 476.709 236.101 C 478.671 239.218 478.936 242.776 477.416 245.622 C 474.012 252.001 468.045 256.399 458.16 263.69 C 454.571 266.334 450.505 269.334 445.889 272.926 C 442.306 275.718 438.517 278.569 434.691 281.449 C 419.98 292.526 404.768 303.98 398.184 314.165 C 394.43 319.972 375.956 330.905 358.088 341.477 C 332.481 356.63 326.443 366.789 325.833 372.332 C 323.396 394.563 338.017 539.511 346.121 616.445 L 224.889 616.445 Z " fill="rgb(249,140,40)"/></g></svg>