<?xml version="1.0" encoding="UTF-8" standalone="no"?><!-- Generator: Gravit.io --><svg xmlns="http://www.w3.org/2000/svg" xmlns:xlink="http://www.w3.org/1999/xlink" style="isolation:isolate" viewBox="507.49 152.24 551.87 532.385" width="551.87pt" height="532.385pt"><path d=" M 671.196 680.321 L 671.196 680.321 L 671.196 680.321 C 640.34 666.516 612.256 647.193 588.359 623.269 C 563.182 598.092 543.073 568.306 529.19 535.554 C 514.849 501.563 507.464 465.065 507.491 428.189 L 507.491 428.189 C 507.464 391.313 514.849 354.788 529.19 320.823 C 543.073 288.071 563.182 258.285 588.359 233.108 C 613.508 207.931 643.295 187.849 676.073 173.939 C 710.038 159.599 746.564 152.213 783.439 152.24 C 820.315 152.213 856.813 159.599 890.778 173.939 C 923.556 187.849 953.343 207.931 978.492 233.108 C 1003.697 258.285 1023.779 288.071 1037.661 320.823 C 1052.029 354.815 1059.388 391.313 1059.36 428.189 C 1059.388 465.065 1052.029 501.563 1037.661 535.554 C 1023.779 568.306 1003.697 598.092 978.492 623.269 C 953.343 648.446 923.556 668.528 890.778 682.437 C 889.016 683.182 887.246 683.907 885.474 684.625 L 885.474 684.625 L 885.474 684.625 L 885.474 684.625 C 892.759 638.005 901.563 585.6 905.332 575.741 C 906.615 572.387 912.035 567.041 930.463 561.774 C 943.321 558.099 956.616 554.298 959.902 551.292 C 965.666 546.018 977.012 541.362 987.986 536.858 C 990.841 535.687 993.666 534.528 996.354 533.372 C 999.816 531.886 1002.84 530.68 1005.507 529.618 C 1012.856 526.686 1017.291 524.918 1020.453 521.499 C 1021.864 519.973 1022.278 517.712 1021.564 515.45 C 1020.428 511.854 1016.876 509.167 1011.816 508.076 C 1009.219 507.515 1006.244 507.374 1002.976 507.66 C 996.81 508.199 962.298 519.656 960.098 520.83 Q 959.644 521.057 958.516 521.269 L 958.516 521.269 C 956.99 521.513 955.206 521.274 953.805 520.972 C 949.315 520.004 943.979 517.401 942.386 515.4 C 940.061 512.481 937.367 503.72 938.41 497.603 C 939.239 492.748 943.623 476.449 947.959 466.256 Q 949.848 462.153 950.522 461.013 C 953.506 455.972 969.26 414.629 970.54 410.539 C 971.402 407.786 972.394 404.803 973.444 401.656 Q 973.425 401.704 973.85 400.437 C 976.725 391.814 979.903 382.191 981.036 375.222 C 981.822 370.391 978.692 367.941 975.772 367.311 C 972.131 366.525 967.348 368.106 964.877 373.413 C 962.088 379.399 956.955 391.97 952.427 403.06 C 949.066 411.294 946.162 418.405 944.897 421.156 C 943.79 423.563 934.006 444.742 931.325 447.227 C 930.473 448.016 929.433 448.327 928.396 448.103 C 926.394 447.67 924.94 445.43 925.086 443 C 925.174 441.514 926.801 434.262 928.847 425.287 C 932.758 422.402 935.435 419.91 937.257 416.718 C 938.468 414.597 938.344 411.9 936.926 409.499 C 936.058 408.028 934.813 406.807 933.28 405.852 C 934.281 401.127 935.257 396.479 935.718 393.694 L 935.718 393.694 L 936.405 389.505 L 936.703 387.684 L 936.703 387.684 C 938.797 374.894 942.3 353.486 944.078 345.242 C 945.094 340.537 941.195 337.037 937.01 336.134 C 933.164 335.304 927.852 336.445 925.539 342.387 C 921.286 353.312 916.833 374.157 914.44 385.357 L 914.44 385.357 L 913.785 388.41 L 913.785 388.41 C 912.993 392.083 911.43 398.674 909.304 407.397 C 907.004 408.59 904.376 410.013 901.138 411.888 L 901.138 411.888 C 902.44 404.041 903.596 396.799 904.249 391.638 C 905.031 385.453 906.471 377.204 907.74 369.926 C 908.89 363.334 909.977 357.106 910.423 353.328 C 910.833 349.841 907.963 347.621 904.937 346.968 C 901.082 346.135 896.171 347.641 894.496 352.916 C 892.051 360.617 888.098 377.331 885.482 388.39 C 884.601 392.115 883.859 395.255 883.354 397.295 C 882.893 399.153 882.159 402.284 881.272 406.056 C 879.78 412.417 877.921 420.338 876.294 426.547 L 876.294 426.547 C 872.122 429.141 868.627 431.395 867.989 431.951 Q 867.529 432.332 866.295 432.873 C 865.712 433.11 865.078 433.289 864.398 433.417 L 864.398 433.417 C 864.369 433.04 864.358 432.664 864.359 432.288 C 864.365 428.684 863.881 423.151 863.369 417.295 C 862.839 411.236 862.292 404.971 862.191 399.918 C 862.098 395.281 862.343 391.465 862.582 387.776 C 862.848 383.644 863.099 379.741 862.763 375.487 C 862.564 372.969 861.061 371.167 858.741 370.667 C 857.042 370.299 855.15 370.733 853.549 371.856 C 851.177 373.522 849.583 376.56 849.064 380.412 C 848.557 384.164 847.96 388.136 847.383 391.976 C 845.962 401.431 844.62 410.361 844.841 414.438 C 844.971 416.86 844.865 422.902 844.729 428.933 L 844.729 428.933 C 841.41 425.112 837.372 417.362 837.005 411.112 C 836.667 405.334 837.365 385.514 839.627 372.696 Q 840.702 367.499 841.17 366.015 C 843.25 359.452 850.326 307.95 850.706 302.928 C 850.964 299.549 851.309 295.871 851.676 291.989 Q 851.667 292.05 851.818 290.487 L 851.818 290.487 C 852.823 279.854 853.91 267.995 853.36 259.717 C 852.978 253.978 848.746 252.004 845.236 252.056 C 840.86 252.122 835.805 255.2 834.382 261.929 C 832.777 269.522 830.233 285.273 827.99 299.169 C 826.324 309.485 824.885 318.395 824.166 321.879 C 823.537 324.928 817.95 351.767 815.54 355.322 C 814.775 356.451 813.667 357.083 812.42 357.101 C 810.014 357.137 807.755 354.957 807.278 352.137 C 806.949 350.201 806.914 339.433 806.875 326.963 C 806.833 313.965 806.784 299.233 806.378 292.877 L 806.378 292.877 L 805.914 285.735 L 805.914 285.735 C 804.92 270.538 803.255 245.103 803.106 235.195 C 803.021 229.539 797.629 226.566 792.6 226.642 C 787.978 226.712 782.199 229.425 781.126 236.841 C 779.154 250.475 779.581 275.518 779.81 288.972 L 779.81 288.972 L 779.871 292.641 C 780.052 304.697 779.425 343.188 779.203 348.285 C 779.068 351.373 777.457 353.01 775.933 353.033 C 774.99 353.047 774.15 352.487 773.562 351.452 C 772.976 350.416 772.663 348.966 772.636 347.14 C 772.528 339.937 771.232 312.801 769.81 298.864 C 769.065 291.576 768.527 281.752 768.051 273.084 C 767.62 265.233 767.213 257.816 766.722 253.372 C 766.268 249.271 762.393 247.491 758.756 247.546 C 754.122 247.615 748.9 250.641 748.381 257.123 C 747.623 266.586 747.529 286.767 747.466 300.121 C 747.445 304.619 747.428 308.41 747.39 310.879 C 747.356 313.127 747.344 316.907 747.33 321.46 C 747.283 337.465 747.21 361.651 746.074 365.485 C 745.502 367.42 744.266 367.727 743.581 367.738 C 740.477 367.786 736.349 362.177 734.921 355.972 C 733.972 351.845 731.952 345.64 729.814 339.071 C 727.601 332.276 725.314 325.25 723.859 319.491 C 722.523 314.208 721.793 309.775 721.088 305.488 C 720.297 300.688 719.55 296.153 718.037 291.373 C 717.143 288.543 714.943 286.878 712.156 286.92 C 710.113 286.951 708.062 287.949 706.528 289.658 C 704.253 292.194 703.235 296.095 703.661 300.642 C 704.075 305.072 704.445 309.777 704.803 314.326 C 705.683 325.525 706.513 336.103 707.847 340.712 C 709.117 345.112 712.167 360.372 714.395 371.513 C 715.519 377.133 716.489 381.985 716.919 383.888 C 717.454 386.255 718.036 395.753 718.625 407.634 L 718.625 407.634 L 718.625 407.634 C 717.307 406.622 715.723 406.17 714.252 406.385 C 712.16 406.69 710.714 408.202 710.385 410.429 C 709.829 414.191 709.817 417.677 709.803 421.367 C 709.793 424.661 709.781 428.07 709.418 432.187 C 709.023 436.674 708.158 442.212 707.321 447.567 C 706.512 452.744 705.748 457.635 705.535 460.839 C 705.215 465.657 702.8 470.356 700.47 470.694 C 699.955 470.769 698.993 470.688 698.331 469.308 C 697.018 466.575 694.046 448.472 692.08 436.493 C 691.52 433.085 691.055 430.256 690.758 428.576 C 690.432 426.732 689.962 423.896 689.403 420.53 C 687.745 410.538 685.24 395.437 683.531 388.442 C 682.36 383.651 678.085 382.015 674.607 382.522 C 671.877 382.92 669.19 384.721 669.344 387.846 C 669.513 391.233 670.103 396.836 670.727 402.767 C 671.416 409.315 672.198 416.737 672.52 422.284 C 673.137 432.892 675.439 453.369 676.228 458.776 C 676.428 460.146 676.368 461.27 676.055 462.116 C 675.739 462.962 675.177 463.483 674.47 463.586 C 673.326 463.752 671.922 462.721 671.448 460.425 C 670.667 456.635 665.554 427.888 664.235 418.838 L 664.235 418.838 L 663.838 416.083 L 663.838 416.083 C 662.387 405.981 659.685 387.177 656.564 377.205 C 654.866 371.781 650.211 370.446 646.742 370.952 C 642.966 371.502 639.287 374.378 639.906 378.624 C 640.99 386.062 642.812 405.309 643.901 416.809 L 643.901 416.809 L 644.414 422.212 L 644.414 422.212 C 644.877 427.021 646.618 438.059 648.155 447.797 C 649.63 457.139 650.902 465.207 650.89 466.696 C 650.873 468.866 649.444 470.771 647.638 471.034 C 646.702 471.171 645.797 470.831 645.087 470.078 C 642.854 467.707 635.432 448.283 634.593 446.076 C 633.634 443.553 631.482 437.055 628.99 429.531 C 625.634 419.396 621.829 407.908 619.711 402.417 L 619.711 402.417 C 617.834 397.549 613.677 395.854 610.392 396.333 C 607.757 396.717 604.826 398.706 605.233 403.05 C 605.82 409.315 608.065 418.064 610.099 425.905 Q 610.402 427.057 610.387 427.013 L 610.387 427.013 C 611.131 429.875 611.833 432.587 612.433 435.087 C 613.324 438.801 624.836 476.514 627.184 481.177 Q 627.715 482.232 629.147 485.994 C 632.386 495.319 635.3 510.077 635.744 514.445 C 636.302 519.946 633.378 527.574 631.133 530.029 C 629.596 531.712 624.694 533.704 620.644 534.294 C 619.38 534.478 617.779 534.583 616.436 534.274 Q 615.447 534.017 615.057 533.787 C 613.171 532.611 583.175 520.339 577.726 519.487 C 574.836 519.036 572.183 518.981 569.84 519.323 C 565.274 519.988 561.953 522.163 560.726 525.291 C 559.954 527.26 560.187 529.295 561.349 530.737 L 561.349 530.737 L 561.349 530.737 C 563.954 533.969 567.791 535.808 574.148 538.859 C 576.456 539.965 579.072 541.22 582.06 542.75 C 584.381 543.94 586.823 545.142 589.29 546.355 C 598.776 551.023 608.585 555.849 613.391 560.886 C 616.131 563.758 627.724 567.94 638.935 571.984 C 655.003 577.781 659.499 582.862 660.437 585.922 C 663.115 594.661 667.593 639.398 671.196 680.321 L 671.196 680.321 L 671.196 680.321 Z  M 738.329 681.925 C 733.612 654.253 728.818 625.734 728.359 621.822 C 728.066 619.333 727.109 614.078 726 607.993 C 722.757 590.192 720.181 575.239 721.506 572.545 C 723.387 568.725 728.582 542.71 727.719 532.074 C 727.373 527.809 726.41 519.314 725.392 510.321 C 723.829 496.532 722.213 482.272 722.383 479.572 C 722.476 478.095 722.617 474.344 722.78 470 C 722.848 468.209 722.921 466.281 723.007 463.966 C 726.676 479.502 734.967 501.072 737.557 504.723 C 739.848 507.95 739.629 527.954 739.141 551.805 C 738.974 559.958 738.83 567 738.971 570.3 C 739.254 576.9 738.757 636.812 738.329 681.925 L 738.329 681.925 L 738.329 681.925 L 738.329 681.925 Z  M 824.613 619.236 C 826.073 613.139 826.425 611.53 826.568 610.765 C 827.084 608.001 828.555 602.19 830.26 595.463 C 835.243 575.782 839.265 559.239 837.986 556.123 C 836.171 551.703 832.334 522.186 834.108 510.345 C 834.703 506.383 836.001 499.153 837.479 491.035 C 823.975 499.618 820.352 505.727 819.852 509.328 C 818.363 520.086 821.101 569.213 824.613 619.236 L 824.613 619.236 L 824.613 619.236 L 824.613 619.236 Z " fill-rule="evenodd" fill="rgb(249,141,41)"/></svg>